<?xml version="1.0" encoding="utf-8"?>
<!-- Generator: Adobe Illustrator 26.0.2, SVG Export Plug-In . SVG Version: 6.00 Build 0)  -->
<svg version="1.1" id="Layer_1" xmlns="http://www.w3.org/2000/svg" xmlns:xlink="http://www.w3.org/1999/xlink" x="0px" y="0px"
	 viewBox="0 0 356.6 411.2" style="enable-background:new 0 0 356.6 411.2;" xml:space="preserve">
<style type="text/css">
	.st0{fill:none;stroke:#000000;stroke-width:2.5;stroke-linecap:round;stroke-miterlimit:10;}
	.st1{fill:#FFFFFF;}
	.st2{fill:#FFFFFF;stroke:#000000;stroke-miterlimit:10;}
	.st3{fill:none;}
</style>
<g id="Capa_2">
	<g id="Capa_1-2">
		<g id="Capa_2-2">
			<path d="M115,17.7l10-10c0.4-0.4,1-0.7,1.6-0.7H313c-1.4,3.8-3.5,7.3-6.2,10.2c-4.2,4.3-11.1,7.2-15.8,7.2H108.2L115,17.7z"/>
			<path class="st0" d="M291,24.5v260.9H94.9c-1.7,0-3-1.3-3-3V27.5c0-1.7,1.3-3,3-3h13.3H291z"/>
			<path class="st0" d="M115,17.5V7.7c0-3.5,2.9-6.4,6.4-6.4h192.1c0.3,0,0.6,0.2,0.7,0.5v260.4"/>
			<path class="st0" d="M314.2,1.3v0.5C314,3.6,313.6,5.3,313,7c-1.4,3.8-3.5,7.3-6.2,10.2c-4.2,4.3-11.1,7.2-15.8,7.2"/>
			<path class="st0" d="M291,285.4c4.7,0,11.7-3,15.8-7.2c4.1-4.2,7.4-11.7,7.4-16"/>
			<path class="st0" d="M108.2,24.5l6.8-6.8l10-10c0.4-0.4,1-0.7,1.6-0.7H313"/>
			<path class="st0" d="M176.3,378c-0.6-4.8-2.7-9.3-5.9-12.9c-5.8-6.4-14-10.1-22.6-10c-15.7,0-28.4,12.1-27.6,26.8l0,0
				c2.6-3.7,8.3-5.6,10.8-6.5s9.6-0.5,14,1.1s9.2,7.3,15.5,19.4c0,0,2.5,9,7.8,9.3s5.1-2.6,7.7-2.5c1.9,0.1,2.6,2.4,2.9,3.6
				c0.1,0.6,0.5,1,1.1,1.1c1.5,0.3,3.1,0.5,4.6,0.5c4.4,0.2,10.9,0.3,12.9-4.6s2-13.2,2-15.2s-1.4-7.8-1.2-11.6
				c0-0.5,0.3-0.9,0.7-1.2c1.7-1.3,3.2-2.8,4.4-4.6c1.3-2,1.5-3.4,1.5-6.3s-3-7.3-4.7-8.7c-4.3-3.5-14.6-8.9-24.9-6.1
				s-8.7,12.3-8.7,12.3"/>
			<path class="st0" d="M170.3,365c13.7-0.3,19.1,4.9,22.1,8"/>
			<path class="st0" d="M168.3,405.2c0,0-6.1,3.7-28.4-3s-19.3-14.4-19.8-20.4"/>
			<path d="M213.3,285.6c-12.3,17.8-22.9,39-27.8,62.8l7,2.7l7.7,4.5c0.5-0.9,0.1-5.6,0.4-6.9c5.2-25,16.4-40.4,31.3-57.5
				c1.4-1.6,2.2-3.5,2.5-5.6"/>
			<path class="st0" d="M258.8,334.5c3.4-3.6,8.7-6.6,13.9-6.6c10.4,0,18.8,8.8,18.8,19.7c0,5.2-2,10.1-5.5,13.9"/>
			<ellipse class="st0" cx="251" cy="351.5" rx="15.7" ry="19.5"/>
			<path class="st0" d="M285.9,360.8c7.1,5.1,11.4,13.3,11.5,22.1c0,15-12.1,27.1-27.1,27.1c-15,0-27.1-12.1-27.1-27.1
				c0-4.5,1.1-8.9,3.3-12.9"/>
			<path class="st0" d="M251,374.8c3.1-1.5,6.4-3.3,9.5-3.3c4.1,0.1,8.1,1.3,11.6,3.5"/>
			<path d="M151.8,285.6c9.7,15.7,16.6,26.1,31.9,38.9c17.1,14.3,35.2,25.2,59.9,31.8c9.7,2.6,11.5-14,2.5-14.8
				c-23-2.1-39.5-16.6-53.7-30.4c-5.3-5.2-10.4-10.9-13.8-16.4c-1.9-3-3.6-4.7-5.3-9.1"/>
			<path class="st0" d="M29.7,239.8c1.4,1.3,2,3.2,1.8,5.1c-0.6,4.2-6.4,6.8-12.9,5.8S7.4,245.6,8,241.4c0.1-0.3,0.1-0.6,0.2-0.8"/>
			<path class="st0" d="M31.7,245.8c10,2,19.8-4.8,22-15.4c0.9-4.2,0.4-8.5-1.3-12.4"/>
			<path class="st0" d="M28.4,218.8c2,2.1,3,4.5,2.5,6.9c-1.1,5.1-8.5,7.9-16.7,6.2s-14-7.2-12.9-12.3c0.3-1.5,1.1-2.8,2.3-3.7"/>
			<path class="st0" d="M5.6,228.1c-1.4,0.9-2.5,2.3-2.8,3.9c-1,4.7,4.5,9.7,12.2,11.3s14.7-0.9,15.7-5.5c0.5-2.5-0.9-5.2-3.5-7.3"
				/>
			<path class="st0" d="M51.5,207.3c0.3,0,0.6,0,0.9,0.1c7.4,1.5,12,9.1,10.4,16.8c-1.1,5.5-5.3,9.9-10.8,11.2"/>
			<path class="st0" d="M16.9,204.4c5.1-5.4,11-0.6,12.3,0.7c2.1,2.1,2.5,5.3,2.2,8c-0.7,5.9-7.9,9.8-16.1,8.8s-14.2-6.6-13.5-12.4
				c0.4-3.2,2.6-5.7,5.9-7.3c0,0,5.9-1.7,9.2-4.3c1.5-1.1,2.2-3,1.9-4.8c-1-2.9-7.7-8.9-10.2-16.4s1.4-15,9.1-13.6s7.6,8.8,7.1,12.6
				c-0.4,4.6,0.8,9.1,3.5,12.8c2.8,3.8,23.2,18.6,23.2,18.6c1.6,2.7,2.1,5.9,1.4,9c-0.1,0.6-0.3,1.3-0.5,1.9c-0.7,2-1.8,3.7-3.4,5.1
				"/>
			<path class="st0" d="M8.6,205.9c6.7-3.8,13.9,0.6,13.9,0.6"/>
			<path class="st0" d="M33.9,235.1c-2.2-10.9,8.3-15,8.3-15"/>
			<path d="M91.8,145c-0.8,0.7-1.4,1.6-1.8,2.6c-6.5,15.3-7.8,22.8-14.4,38.1c-5.2,12.3-7.5,15.5-16.2,25.7l3.7,6.1l-0.9,8.8
				c2,0.3,21.5-22.4,29.7-43.3"/>
			<path d="M330.4,205c-1.8-9-3-16.6-6.6-24.9c-3.6-8.3-9.6-22.7-14.8-30.3c-7.8-11.3-18.1,1.9-10.3,13.3c3.6,5.4,6.7,11.1,9.2,17
				c4,8.6,7,17.6,8.9,26.9"/>
			<path class="st1" d="M314.1,281.5c-3.9,1.8-8.1,1.1-10-1.4c-1.7-2.4-1.7-5.5,0-7.9c10.5-13.9,7.2-22.8,5.9-25.3
				c-0.2-0.2-0.5-0.2-0.5,0.1c-0.8,7.4-9.1,13.2-13.2,10.5c-4.1-2.7-4.7-5-3.4-8.7c1.3-3.7,6.6-10.6,8.7-17.3
				c2.7-7.5,6.3-12.8,10.8-15.9c3.9-2.8,8.5-3.8,13.8-3.1c3.7,0.5,7.3,0.7,10.6,1.9c6.6,2.4,12.2,8.6,16.7,28.7
				c6.7,29.6-6.8,26.4-7.4,26.2c-2,15.1-13.6,9.8-13.6,9.8c-0.8,1.4-1.8,2.6-3.1,3.5c-3,2.5-6.5,3.4-9.2,1.9
				c-1.9-1.1-3.1-3.1-3.4-5.3C315.9,280.1,315,280.8,314.1,281.5z"/>
			<path class="st1" d="M336.8,214.4c-3.3-1.2-6.8-1.4-10.6-1.9c-4.8-0.8-9.8,0.3-13.8,3.1c0,0-0.5-10.1,11.4-10.6
				C335.7,204.6,337.9,212,336.8,214.4z"/>
			<path class="st0" d="M335.5,261.4c0,1-0.2,9.6-1.5,14c-0.3,1.3-0.8,2.6-1.5,3.8c-0.8,1.4-1.8,2.6-3.1,3.5c-3,2.5-6.5,3.4-9.2,1.9
				c-1.9-1.1-3.1-3.1-3.4-5.3"/>
			<path class="st0" d="M345.8,256.8c0.6,4.2,0.7,8.4,0.3,12.6c-2,15.1-13.6,9.8-13.6,9.8"/>
			<path class="st0" d="M324.6,260.5c0,0.8-0.7,7.6-3,12.2c-1.2,2.5-2.9,4.7-4.9,6.5l0,0c-0.8,0.8-1.7,1.6-2.7,2.2
				c-3.9,1.8-8.1,1.1-10-1.4c-1.7-2.4-1.7-5.5,0-7.9c10.5-13.9,7.2-22.8,5.9-25.3c-0.2-0.2-0.5-0.2-0.5,0.1
				c-0.8,7.4-9.1,13.2-13.2,10.5s-4.7-5-3.4-8.7c1.3-3.7,6.6-10.6,8.7-17.3c2.7-7.5,6.3-12.8,10.8-15.9c3.9-2.8,8.5-3.8,13.8-3.1
				c3.7,0.5,7.3,0.7,10.6,1.9c6.6,2.4,12.2,8.6,16.7,28.7c6.7,29.6-6.7,26.4-7.4,26.2l0,0"/>
			<path class="st0" d="M336.8,214.3c1.1-2.5-1.2-9.9-13.1-9.4c-11.9,0.5-11.4,10.6-11.4,10.6"/>
			<path class="st2" d="M281.4,191.5c30.7,1.9,32-15.6,30.1-16.3s-1.3,1.9-14.4,0.1c-9.5-1.3-22-8.5-31.6-14.3v-0.1
				c-3.6-2.1-6.9-4.1-9.4-5.6c-0.8-0.4-1.5-0.8-2.2-1.2c-7.6-4-13.7-5.1-23.3-5.1H206l-6,0.2l-0.2-0.1c-2.1,5.9-9.9,9.7-15.2,9.7
				c-6.8,0-13.2-3.3-17.1-8.9c-3.9-0.3-7.9-0.2-11.8,0.5c-10.7,1.9-20.9,6.1-29.8,12.3c-3.9,2.7-8,5.1-12.3,7.2
				c-17.4,8.5-30.5,7.6-40.2,7.6c0,0-4.6,5.2,1.2,9.7c3.9,2.9,14.2,3.8,24.3,1.7c5,12.9,18.7,11.5,28.7,7.7c7.3,8.4,10.7,8.3,14,8.4
				c6.6,0,10.8-1.8,14.2-4.3c3-2.2,5.4-5,8.2-7.8c6-5.9,10-14,23.3-14.2c10.7-0.1,12.8,1.9,20.5,9.4c1.5,1.5,3.1,2.9,4.8,4.2
				c13.4,10.8,26.8,11.5,33.1,0.8c20.4,8.9,28.4,1.3,27.5-3.2C275.9,190.7,278.6,191.2,281.4,191.5z"/>
			<path class="st1" d="M259.1,86.7c-3.3-6.7-5.4-13.7-16.4-15.2c2,5.3,4.1,9.6,5.9,14.4c0.3,1.1,0.1,2.2-0.7,3l-8,8.3
				c-0.1,0.1-0.2,0.3-0.3,0.5c-0.1,0.5,0.2,1.1,0.8,1.2l9.8,2.8c1.8,0.4,3.1,1.9,3.3,3.7c1.5,10.8,1.9,25.7,0.6,48.7
				c0.7,0.4,1.4,0.8,2.2,1.2c2.5,1.4,5.8,3.4,9.4,5.6l-0.6-44.1C265.1,116.8,265.6,100.2,259.1,86.7z"/>
			<path d="M250.2,101.6l-9.8-2.8c-0.2,0-0.4-0.1-0.5-0.3c-0.4-0.4-0.4-1,0-1.4l8-8.3c0.8-0.8,1.1-1.9,0.7-3
				c-1.8-4.8-3.9-9.2-5.9-14.4c-1.5-0.2-3.1-0.3-4.6-0.3c-25.3,0-30.3,28.6-30.3,51.1c0,9,0.7,17.9,2.1,26.8h20.9
				c9.6,0,15.7,1.2,23.3,5.1c1.3-23,0.9-37.9-0.6-48.7C253.3,103.5,252,102,250.2,101.6z"/>
			<path d="M207.8,188.2c-7.7-7.5-9.8-9.5-20.5-9.4C174,179,170,187.1,164,193c-2.8,2.7-5.2,5.5-8.2,7.8c0,0,3.6,18.2,18.4,23.2
				c5.9-17.6,18.1-26,37.4-24.6h0.1c0.3-2.2,0.6-4.5,0.9-7l0,0C210.9,191.1,209.3,189.7,207.8,188.2z"/>
			<path class="st1" d="M174.3,223.8c2.6,0.9,5.3,1.3,8,1.3c19.1,0,26.6-8.9,29.4-25.9l0,0C192.3,197.9,180.1,206.4,174.3,223.8z"/>
			<path class="st3" d="M150.1,74.1c0.6,2.4,1.8,5.2,3,10.6c0.1,0.8-0.1,1.6-0.6,2.2l-9.3,11.2c-0.1,0.1,0,0.3,0.2,0.4l11.2,1.2
				c0.4,0.1,0.7,0.3,0.7,0.7c0.9,10.8,1.3,26.4,0.4,49.8l0.1,0.3c3.9-0.7,7.9-0.8,11.8-0.5c-2.4-3.4-3.6-7.5-3.6-11.6
				c0-6.1,2.8-11.9,7.6-15.8c0,0,2.1-19.2-3.3-32.7C165.3,81.8,158.5,75.9,150.1,74.1z"/>
			<path d="M154.9,99.6l-11.2-1.2c-0.2,0-0.3-0.2-0.2-0.4l9.3-11.2c0.6-0.6,0.8-1.4,0.6-2.2c-1.2-5.4-2.4-8.1-3-10.6
				c-3.3-0.8-6.8-1.2-10.2-1.2c-22.6,0-29,32.2-28.4,59.6c0.4,19.7,2,37.6,2,37.6c4.3-2.1,8.4-4.5,12.3-7.2
				c8.9-6.3,19.1-10.5,29.8-12.3l-0.1-0.3c0.9-23.4,0.5-39-0.4-49.8C155.4,100,155.2,99.7,154.9,99.6z"/>
			<path class="st0" d="M127.6,196.6c7.3,8.4,10.7,8.3,14,8.4c6.6,0,10.8-1.8,14.2-4.3c3-2.2,5.4-5,8.2-7.8c6-5.9,10-14,23.3-14.2
				c10.7-0.1,12.8,1.9,20.5,9.4c1.5,1.5,3.1,2.9,4.8,4.2c13.4,10.8,26.8,11.5,33.1,0.8"/>
			<path class="st0" d="M113.8,183.4c-4.5,2.7-9.5,4.6-14.7,5.6c-10.2,2.1-20.4,1.2-24.3-1.7c-5.8-4.5-1.2-9.7-1.2-9.7
				c9.7,0,22.8,0.9,40.2-7.6c4.3-2.1,8.4-4.5,12.3-7.2c8.9-6.3,19.1-10.5,29.8-12.3c3.9-0.7,7.9-0.8,11.8-0.5"/>
			<path class="st0" d="M200.2,149.1l6-0.2h24.6c9.6,0,15.7,1.2,23.3,5.1c0.7,0.4,1.4,0.8,2.2,1.2c2.5,1.4,5.8,3.4,9.4,5.6"/>
			<path class="st0" d="M265.8,161c9.6,5.8,22.1,12.9,31.6,14.3c13.1,1.8,12.5-0.8,14.4-0.1c1.9,0.7,0.6,18.2-30.1,16.3
				c-2.9-0.3-5.7-0.8-8.5-1.7c-5.5-1.8-10.7-4.3-15.5-7.4"/>
			<path class="st0" d="M235,187.4c3.4,2.1,7,4,10.7,5.6c20.4,8.9,28.4,1.3,27.5-3.2"/>
			<path class="st0" d="M99,188.9c5,12.9,18.7,11.5,28.7,7.7c3.4-1.3,6.6-3,9.6-5"/>
			<path class="st0" d="M200.5,146c0,1.1-0.2,2.2-0.6,3.2c-2.1,5.9-9.9,9.7-15.2,9.7c-6.8,0-13.2-3.3-17.1-8.9
				c-2.4-3.4-3.6-7.5-3.6-11.6c0-6.1,2.8-11.9,7.6-15.8c3.7-3,8.4-4.6,13.2-4.6c4.5,0,9,1.5,12.6,4.2"/>
			<path class="st0" d="M171.6,122.6c0,0,2.1-19.2-3.3-32.7c-3-8-9.7-14-18-16c-3.3-0.8-6.8-1.2-10.2-1.2c-22.6,0-29,32.2-28.4,59.6
				c0.4,19.7,2,37.6,2,37.6"/>
			<path class="st0" d="M265.7,161v-0.1l-0.6-44.1c0,0,0.4-16.6-6-30.1c-3.3-6.7-5.4-13.7-16.4-15.2c-1.5-0.2-3.1-0.3-4.6-0.3
				c-25.3,0-30.3,28.6-30.3,51.1c0,9,0.7,17.9,2.1,26.8"/>
			<path class="st0" d="M212.4,192.5c-0.2,2.4-0.5,4.7-0.8,6.9c-2.8,16.9-10.3,25.9-29.4,25.9c-2.7,0-5.4-0.4-8-1.3
				c-14.8-5-18.4-23.2-18.4-23.2"/>
			<path class="st0" d="M144.2,54.2c-13.8,0-20.6,6.2-26.1,13.8"/>
			<path class="st0" d="M261.4,68c-4.1-8.4-14.7-14.1-27.9-13.8"/>
			<path class="st0" d="M279.2,134.1c0.6-8.3,0.6-16.6,0-24.9"/>
			<path class="st0" d="M290.7,126.6c0.3-4.3,0.3-8.6,0-12.9"/>
			<path class="st0" d="M200.2,233.1c-13.8,5.7-26.1,1.9-34.1-3.1"/>
			<path class="st0" d="M155.9,149.9c0.9-23.4,0.5-39-0.4-49.8c0-0.4-0.3-0.6-0.7-0.7l-11.2-1.2c-0.2,0-0.3-0.2-0.2-0.4l9.3-11.2
				c0.6-0.6,0.8-1.4,0.6-2.2c-1.2-5.4-2.4-8.1-3-10.6"/>
			<path class="st0" d="M254.1,154.1c1.3-23,0.9-37.9-0.6-48.7c-0.3-1.8-1.6-3.2-3.3-3.7l-9.8-2.8c-0.2,0-0.4-0.1-0.5-0.3
				c-0.4-0.4-0.4-1,0-1.4l8-8.3c0.8-0.8,1.1-1.9,0.7-3c-1.8-4.8-3.9-9.1-5.9-14.4l0,0"/>
			<path class="st0" d="M211.6,199.4c-19.3-1.5-31.5,7-37.4,24.6"/>
		</g>
	</g>
</g>
</svg>
